#N canvas 935 22 596 930 10;
#X declare -lib mrpeach;
#X obj 47 39 cnv 15 300 200 empty empty SEND 20 20 0 14 -233017 -66577
0;
#X obj 48 480 cnv 15 300 200 empty empty NETSEND 20 20 0 14 -233017
-66577 0;
#X obj 47 258 cnv 15 300 200 empty empty THROW_CATCH 20 20 0 14 -233017
-66577 0;
#X obj 48 700 cnv 15 300 200 empty empty OSC 20 20 0 14 -233017 -66577
0;
#X floatatom 204 115 5 0 0 0 - - -;
#X msg 71 88 2;
#X msg 83 100 4;
#X msg 95 112 6;
#X msg 107 124 8;
#X obj 171 142 bng 45 250 50 0 empty empty empty 17 7 0 10 -257985
-1 -1;
#X floatatom 70 293 5 0 0 0 - - -;
#X obj 71 176 send foo;
#X obj 171 86 receive foo;
#X obj 70 365 catch~;
#X obj 70 404 osc~;
#X obj 70 338 throw~;
#X obj 70 315 mtof;
#X obj 66 598 netsend;
#X msg 66 520 connect localhost 3000;
#X msg 75 576 send foo \$1;
#X floatatom 75 549 0 0 0 0 - - -;
#X obj 66 623 netreceive 3000;
#X floatatom 153 653 0 0 0 0 - - -;
#X obj 66 653 print tcp;
#X obj 243 716 import mrpeach;
#X floatatom 71 763 0 0 0 0 - - -;
#X msg 62 734 connect localhost 3001;
#X msg 71 790 send /osc \$1;
#X obj 62 835 udpsend;
#X obj 71 812 packOSC;
#X obj 213 767 udpreceive 3001;
#X obj 213 799 unpackOSC;
#X obj 213 833 print osc;
#X connect 5 0 11 0;
#X connect 6 0 11 0;
#X connect 7 0 11 0;
#X connect 8 0 11 0;
#X connect 10 0 16 0;
#X connect 12 0 9 0;
#X connect 12 0 4 0;
#X connect 13 0 14 0;
#X connect 16 0 15 0;
#X connect 18 0 17 0;
#X connect 19 0 17 0;
#X connect 20 0 19 0;
#X connect 21 0 23 0;
#X connect 21 1 22 0;
#X connect 25 0 27 0;
#X connect 26 0 28 0;
#X connect 27 0 29 0;
#X connect 29 0 28 0;
#X connect 30 0 31 0;
#X connect 31 0 32 0;
