#N canvas 935 22 368 541 10;
#X obj 70 57 tgl 15 0 empty empty empty 17 7 0 10 -262144 -1 -1 0 1
;
#X obj 70 85 metro 300;
#X obj 70 113 f;
#X obj 101 113 + 1;
#X floatatom 70 141 5 0 0 0 - - -;
#X obj 70 167 mod 4;
#X obj 70 196 hradio 15 1 0 4 empty empty empty 0 -8 0 10 -262144 -1
-1 0;
#X obj 70 223 select 0 1 2 3;
#X obj 70 281 f;
#X obj 129 281 f;
#X obj 176 284 f;
#X obj 225 286 f;
#X obj 70 404 mtof;
#X obj 70 432 osc~;
#X obj 70 473 *~;
#X obj 110 414 vsl 15 45 0 1 0 0 empty empty empty 0 -9 0 10 -262144
-1 -1 0 1;
#X obj 70 505 dac~;
#X floatatom 240 263 5 0 0 0 - - -;
#X floatatom 191 260 5 0 0 0 - - -;
#X floatatom 144 258 5 0 0 0 - - -;
#X floatatom 85 259 5 0 0 0 - - -;
#X connect 0 0 1 0;
#X connect 1 0 2 0;
#X connect 2 0 3 0;
#X connect 2 0 4 0;
#X connect 3 0 2 1;
#X connect 4 0 5 0;
#X connect 5 0 6 0;
#X connect 6 0 7 0;
#X connect 7 0 8 0;
#X connect 7 1 9 0;
#X connect 7 2 10 0;
#X connect 7 3 11 0;
#X connect 8 0 12 0;
#X connect 9 0 12 0;
#X connect 10 0 12 0;
#X connect 11 0 12 0;
#X connect 12 0 13 0;
#X connect 13 0 14 0;
#X connect 14 0 16 0;
#X connect 14 0 16 1;
#X connect 15 0 14 1;
#X connect 17 0 11 1;
#X connect 18 0 10 1;
#X connect 19 0 9 1;
#X connect 20 0 8 1;
