#N canvas 1080 22 803 404 10;
#X declare -lib mrpeach;
#X declare -lib mrpeach;
#X obj -11 -345 cnv 15 800 400 empty empty empty 20 20 0 14 -261234
-66577 0;
#X obj 12 -315 import mrpeach;
#X obj 182 -277 ../ABSTRACTIONS/broadcast;
#X floatatom 182 -312 5 0 0 0 - - -;
#X floatatom 231 -312 5 0 0 0 - - -;
#X floatatom 280 -312 5 0 0 0 - - -;
#X floatatom 329 -312 5 0 0 0 - - -;
#N canvas 321 66 565 505 COMP1 0;
#X obj 34 37 cnv 15 400 400 empty empty 1 20 20 0 14 -261234 -66577
0;
#X obj 55 115 unpackOSC;
#X obj 55 172 routeOSC /CH1;
#X floatatom 55 197 5 0 0 0 - - -;
#X floatatom 145 199 5 0 0 0 - - -;
#X obj 145 172 routeOSC /CH2;
#X floatatom 235 199 5 0 0 0 - - -;
#X floatatom 325 199 5 0 0 0 - - -;
#X obj 235 172 routeOSC /CH3;
#X obj 325 172 routeOSC /CH4;
#X obj 91 196 outlet;
#X obj 180 198 outlet;
#X obj 270 198 outlet;
#X obj 362 198 outlet;
#X obj 55 357 pack f f f f;
#X obj 55 83 tcpreceive 3001;
#X obj 55 390 s COMP1;
#X connect 1 0 2 0;
#X connect 1 0 5 0;
#X connect 1 0 9 0;
#X connect 1 0 8 0;
#X connect 2 0 3 0;
#X connect 2 0 14 0;
#X connect 3 0 10 0;
#X connect 4 0 11 0;
#X connect 5 0 4 0;
#X connect 5 0 14 1;
#X connect 6 0 12 0;
#X connect 7 0 13 0;
#X connect 8 0 6 0;
#X connect 8 0 14 2;
#X connect 9 0 7 0;
#X connect 9 0 14 3;
#X connect 14 0 16 0;
#X connect 15 0 1 0;
#X restore 43 -162 pd COMP1;
#X floatatom 43 -127 5 0 0 0 - - -;
#X floatatom 58 -107 5 0 0 0 - - -;
#X floatatom 73 -86 5 0 0 0 - - -;
#X floatatom 88 -65 5 0 0 0 - - -;
#X floatatom 144 -126 5 0 0 0 - - -;
#X floatatom 159 -106 5 0 0 0 - - -;
#X floatatom 174 -85 5 0 0 0 - - -;
#X floatatom 189 -64 5 0 0 0 - - -;
#N canvas 317 127 565 505 COMP2 0;
#X obj 29 31 cnv 15 400 400 empty empty 2 20 20 0 14 -261234 -66577
0;
#X obj 50 109 unpackOSC;
#X obj 50 166 routeOSC /CH1;
#X floatatom 50 191 5 0 0 0 - - -;
#X floatatom 140 193 5 0 0 0 - - -;
#X obj 140 166 routeOSC /CH2;
#X floatatom 230 193 5 0 0 0 - - -;
#X floatatom 320 193 5 0 0 0 - - -;
#X obj 230 166 routeOSC /CH3;
#X obj 320 166 routeOSC /CH4;
#X obj 86 190 outlet;
#X obj 175 192 outlet;
#X obj 265 192 outlet;
#X obj 357 192 outlet;
#X obj 50 351 pack f f f f;
#X obj 50 77 tcpreceive 3002;
#X obj 50 384 s COMP2;
#X connect 1 0 2 0;
#X connect 1 0 5 0;
#X connect 1 0 9 0;
#X connect 1 0 8 0;
#X connect 2 0 3 0;
#X connect 2 0 14 0;
#X connect 3 0 10 0;
#X connect 4 0 11 0;
#X connect 5 0 4 0;
#X connect 5 0 14 1;
#X connect 6 0 12 0;
#X connect 7 0 13 0;
#X connect 8 0 6 0;
#X connect 8 0 14 2;
#X connect 9 0 7 0;
#X connect 9 0 14 3;
#X connect 14 0 16 0;
#X connect 15 0 1 0;
#X restore 144 -161 pd COMP2;
#X floatatom 242 -125 5 0 0 0 - - -;
#X floatatom 257 -105 5 0 0 0 - - -;
#X floatatom 272 -84 5 0 0 0 - - -;
#X floatatom 287 -63 5 0 0 0 - - -;
#X floatatom 343 -124 5 0 0 0 - - -;
#X floatatom 358 -104 5 0 0 0 - - -;
#X floatatom 373 -83 5 0 0 0 - - -;
#X floatatom 388 -62 5 0 0 0 - - -;
#N canvas 321 66 565 505 COMP3 0;
#X obj 28 33 cnv 15 400 400 empty empty 3 20 20 0 14 -261234 -66577
0;
#X obj 49 111 unpackOSC;
#X obj 49 168 routeOSC /CH1;
#X floatatom 49 193 5 0 0 0 - - -;
#X floatatom 139 195 5 0 0 0 - - -;
#X obj 139 168 routeOSC /CH2;
#X floatatom 229 195 5 0 0 0 - - -;
#X floatatom 319 195 5 0 0 0 - - -;
#X obj 229 168 routeOSC /CH3;
#X obj 319 168 routeOSC /CH4;
#X obj 85 192 outlet;
#X obj 174 194 outlet;
#X obj 264 194 outlet;
#X obj 356 194 outlet;
#X obj 49 353 pack f f f f;
#X obj 49 79 tcpreceive 3003;
#X obj 49 386 s COMP3;
#X connect 1 0 2 0;
#X connect 1 0 5 0;
#X connect 1 0 9 0;
#X connect 1 0 8 0;
#X connect 2 0 3 0;
#X connect 2 0 14 0;
#X connect 3 0 10 0;
#X connect 4 0 11 0;
#X connect 5 0 4 0;
#X connect 5 0 14 1;
#X connect 6 0 12 0;
#X connect 7 0 13 0;
#X connect 8 0 6 0;
#X connect 8 0 14 2;
#X connect 9 0 7 0;
#X connect 9 0 14 3;
#X connect 14 0 16 0;
#X connect 15 0 1 0;
#X restore 242 -160 pd COMP3;
#N canvas 317 127 565 505 COMP4 0;
#X obj 28 24 cnv 15 400 400 empty empty 4 20 20 0 14 -261234 -66577
0;
#X obj 49 102 unpackOSC;
#X obj 49 159 routeOSC /CH1;
#X floatatom 49 184 5 0 0 0 - - -;
#X floatatom 139 186 5 0 0 0 - - -;
#X obj 139 159 routeOSC /CH2;
#X floatatom 229 186 5 0 0 0 - - -;
#X floatatom 319 186 5 0 0 0 - - -;
#X obj 229 159 routeOSC /CH3;
#X obj 319 159 routeOSC /CH4;
#X obj 85 183 outlet;
#X obj 174 185 outlet;
#X obj 264 185 outlet;
#X obj 356 185 outlet;
#X obj 49 344 pack f f f f;
#X obj 49 70 tcpreceive 3004;
#X obj 49 377 s COMP4;
#X connect 1 0 2 0;
#X connect 1 0 5 0;
#X connect 1 0 9 0;
#X connect 1 0 8 0;
#X connect 2 0 3 0;
#X connect 2 0 14 0;
#X connect 3 0 10 0;
#X connect 4 0 11 0;
#X connect 5 0 4 0;
#X connect 5 0 14 1;
#X connect 6 0 12 0;
#X connect 7 0 13 0;
#X connect 8 0 6 0;
#X connect 8 0 14 2;
#X connect 9 0 7 0;
#X connect 9 0 14 3;
#X connect 14 0 16 0;
#X connect 15 0 1 0;
#X restore 343 -159 pd COMP4;
#X floatatom 438 -123 5 0 0 0 - - -;
#X floatatom 453 -103 5 0 0 0 - - -;
#X floatatom 468 -82 5 0 0 0 - - -;
#X floatatom 483 -61 5 0 0 0 - - -;
#X floatatom 536 -122 5 0 0 0 - - -;
#X floatatom 551 -102 5 0 0 0 - - -;
#X floatatom 566 -81 5 0 0 0 - - -;
#X floatatom 581 -60 5 0 0 0 - - -;
#N canvas 175 118 504 453 COMP5 0;
#X obj 24 15 cnv 15 400 400 empty empty 5 20 20 0 14 -261234 -66577
0;
#X obj 45 93 unpackOSC;
#X obj 45 149 routeOSC /CH1;
#X floatatom 45 174 5 0 0 0 - - -;
#X floatatom 135 177 5 0 0 0 - - -;
#X obj 135 150 routeOSC /CH2;
#X floatatom 225 177 5 0 0 0 - - -;
#X floatatom 315 177 5 0 0 0 - - -;
#X obj 225 150 routeOSC /CH3;
#X obj 315 150 routeOSC /CH4;
#X obj 81 173 outlet;
#X obj 170 176 outlet;
#X obj 260 176 outlet;
#X obj 352 176 outlet;
#X obj 45 61 tcpreceive 3005;
#X obj 45 335 pack f f f f;
#X obj 45 368 s COMP5;
#X connect 1 0 2 0;
#X connect 1 0 5 0;
#X connect 1 0 9 0;
#X connect 1 0 8 0;
#X connect 2 0 3 0;
#X connect 2 0 15 0;
#X connect 3 0 10 0;
#X connect 4 0 11 0;
#X connect 5 0 4 0;
#X connect 5 0 15 1;
#X connect 6 0 12 0;
#X connect 7 0 13 0;
#X connect 8 0 6 0;
#X connect 8 0 15 2;
#X connect 9 0 7 0;
#X connect 9 0 15 3;
#X connect 14 0 1 0;
#X connect 15 0 16 0;
#X restore 438 -158 pd COMP5;
#N canvas 321 66 565 505 COMP6 0;
#X obj 34 25 cnv 15 400 400 empty empty 6 20 20 0 14 -261234 -66577
0;
#X obj 55 103 unpackOSC;
#X obj 55 160 routeOSC /CH1;
#X floatatom 55 185 5 0 0 0 - - -;
#X floatatom 145 187 5 0 0 0 - - -;
#X obj 145 160 routeOSC /CH2;
#X floatatom 235 187 5 0 0 0 - - -;
#X floatatom 325 187 5 0 0 0 - - -;
#X obj 235 160 routeOSC /CH3;
#X obj 325 160 routeOSC /CH4;
#X obj 91 184 outlet;
#X obj 180 186 outlet;
#X obj 270 186 outlet;
#X obj 362 186 outlet;
#X obj 55 345 pack f f f f;
#X obj 55 71 tcpreceive 3006;
#X obj 55 378 s COMP6;
#X connect 1 0 2 0;
#X connect 1 0 5 0;
#X connect 1 0 9 0;
#X connect 1 0 8 0;
#X connect 2 0 3 0;
#X connect 2 0 14 0;
#X connect 3 0 10 0;
#X connect 4 0 11 0;
#X connect 5 0 4 0;
#X connect 5 0 14 1;
#X connect 6 0 12 0;
#X connect 7 0 13 0;
#X connect 8 0 6 0;
#X connect 8 0 14 2;
#X connect 9 0 7 0;
#X connect 9 0 14 3;
#X connect 14 0 16 0;
#X connect 15 0 1 0;
#X restore 536 -157 pd COMP6;
#N canvas 1010 491 520 242 vizualize 0;
#X obj 348 18 cnv 15 150 200 empty empty empty 20 12 0 14 -233017 -66577
0;
#X obj 374 59 unpack f f f f;
#X floatatom 374 88 5 0 0 0 - - -;
#X floatatom 401 108 5 0 0 0 - - -;
#X floatatom 428 129 5 0 0 0 - - -;
#X floatatom 455 150 5 0 0 0 - - -;
#N canvas 573 478 794 434 circle 0;
#X obj 267 11 inlet;
#X obj 267 41 / 100;
#X obj 307 11 inlet;
#X obj 307 41 / 100;
#X obj 347 11 inlet;
#X obj 347 41 / 100;
#X obj 387 11 inlet;
#X obj 387 41 / 100;
#X floatatom 267 67 5 0 0 0 - - -;
#X floatatom 307 67 5 0 0 0 - - -;
#X floatatom 347 67 5 0 0 0 - - -;
#X floatatom 387 67 5 0 0 0 - - -;
#X obj 267 90 abs;
#X obj 307 90 abs;
#X obj 347 90 abs;
#X obj 387 90 abs;
#X obj 10 153 cnv 15 150 250 empty empty empty 20 12 0 14 -233017 -66577
0;
#X obj 27 167 gemhead;
#X obj 27 223 alpha;
#X obj 67 292 mod 360;
#X obj 67 267 * 100;
#X obj 183 153 cnv 15 150 250 empty empty empty 20 12 0 14 -233017
-66577 0;
#X obj 200 167 gemhead;
#X obj 200 223 alpha;
#X obj 240 296 mod 360;
#X obj 240 272 * 100;
#X obj 356 154 cnv 15 150 250 empty empty empty 20 12 0 14 -233017
-66577 0;
#X obj 373 168 gemhead;
#X obj 373 224 alpha;
#X obj 413 294 mod 360;
#X obj 413 270 * 100;
#X obj 532 154 cnv 15 150 250 empty empty empty 20 12 0 14 -233017
-66577 0;
#X obj 549 168 gemhead;
#X obj 549 224 alpha;
#X obj 589 294 mod 360;
#X obj 589 273 * 100;
#X msg 41 347 draw fill;
#X msg 214 347 draw fill;
#X msg 387 348 draw fill;
#X msg 563 348 draw fill;
#X obj 27 245 translateXYZ -3 -2 0;
#X obj 200 250 translateXYZ -1 -2 0;
#X obj 373 248 translateXYZ 1 -2 0;
#X obj 549 250 translateXYZ 3 -2 0;
#X obj 549 371 circle 1;
#X obj 373 371 circle 1;
#X obj 200 370 circle 1;
#X obj 27 370 circle 1;
#X obj 373 323 rotate 0 1 0 0;
#X obj 549 323 rotate 0 1 0 0;
#X obj 200 325 rotate 0 1 0 0;
#X obj 27 321 rotate 0 1 0 0;
#X obj 549 198 colorRGB 1 1 1 1;
#X obj 373 198 colorRGB 1 1 1 1;
#X obj 200 197 colorRGB 1 1 1 1;
#X obj 27 197 colorRGB 1 1 1 1;
#X connect 0 0 1 0;
#X connect 1 0 8 0;
#X connect 2 0 3 0;
#X connect 3 0 9 0;
#X connect 4 0 5 0;
#X connect 5 0 10 0;
#X connect 6 0 7 0;
#X connect 7 0 11 0;
#X connect 8 0 12 0;
#X connect 9 0 13 0;
#X connect 10 0 14 0;
#X connect 11 0 15 0;
#X connect 12 0 25 0;
#X connect 12 0 52 2;
#X connect 12 0 53 3;
#X connect 12 0 55 1;
#X connect 13 0 30 0;
#X connect 13 0 52 3;
#X connect 13 0 54 1;
#X connect 13 0 55 2;
#X connect 14 0 35 0;
#X connect 14 0 53 1;
#X connect 14 0 54 2;
#X connect 14 0 55 3;
#X connect 15 0 20 0;
#X connect 15 0 52 1;
#X connect 15 0 53 2;
#X connect 15 0 54 3;
#X connect 17 0 55 0;
#X connect 18 0 40 0;
#X connect 19 0 51 1;
#X connect 20 0 19 0;
#X connect 22 0 54 0;
#X connect 23 0 41 0;
#X connect 24 0 50 1;
#X connect 25 0 24 0;
#X connect 27 0 53 0;
#X connect 28 0 42 0;
#X connect 29 0 48 1;
#X connect 30 0 29 0;
#X connect 32 0 52 0;
#X connect 33 0 43 0;
#X connect 34 0 49 1;
#X connect 35 0 34 0;
#X connect 36 0 47 0;
#X connect 37 0 46 0;
#X connect 38 0 45 0;
#X connect 39 0 44 0;
#X connect 40 0 51 0;
#X connect 41 0 50 0;
#X connect 42 0 48 0;
#X connect 43 0 49 0;
#X connect 48 0 45 0;
#X connect 49 0 44 0;
#X connect 50 0 46 0;
#X connect 51 0 47 0;
#X connect 52 0 33 0;
#X connect 53 0 28 0;
#X connect 54 0 23 0;
#X connect 55 0 18 0;
#X restore 374 189 pd circle;
#X obj 374 29 r COMP6;
#X obj 185 18 cnv 15 150 200 empty empty empty 20 12 0 14 -233017 -66577
0;
#X obj 211 59 unpack f f f f;
#X floatatom 211 88 5 0 0 0 - - -;
#X floatatom 238 108 5 0 0 0 - - -;
#X floatatom 265 129 5 0 0 0 - - -;
#X floatatom 292 150 5 0 0 0 - - -;
#X obj 211 29 r COMP5;
#N canvas 573 478 794 434 triangle 0;
#X obj 240 11 inlet;
#X obj 240 41 / 100;
#X obj 280 11 inlet;
#X obj 280 41 / 100;
#X obj 320 11 inlet;
#X obj 320 41 / 100;
#X obj 360 11 inlet;
#X obj 360 41 / 100;
#X floatatom 240 67 5 0 0 0 - - -;
#X floatatom 280 67 5 0 0 0 - - -;
#X floatatom 320 67 5 0 0 0 - - -;
#X floatatom 360 67 5 0 0 0 - - -;
#X obj 240 90 abs;
#X obj 280 90 abs;
#X obj 320 90 abs;
#X obj 360 90 abs;
#X obj -17 153 cnv 15 150 250 empty empty empty 20 12 0 14 -233017
-66577 0;
#X obj 0 167 gemhead;
#X obj 0 223 alpha;
#X obj 40 292 mod 360;
#X obj 40 267 * 100;
#X obj 156 153 cnv 15 150 250 empty empty empty 20 12 0 14 -233017
-66577 0;
#X obj 173 167 gemhead;
#X obj 173 223 alpha;
#X obj 213 296 mod 360;
#X obj 213 272 * 100;
#X obj 329 154 cnv 15 150 250 empty empty empty 20 12 0 14 -233017
-66577 0;
#X obj 346 168 gemhead;
#X obj 346 224 alpha;
#X obj 386 294 mod 360;
#X obj 386 270 * 100;
#X obj 505 154 cnv 15 150 250 empty empty empty 20 12 0 14 -233017
-66577 0;
#X obj 522 168 gemhead;
#X obj 522 224 alpha;
#X obj 562 294 mod 360;
#X obj 562 273 * 100;
#X obj 173 250 translateXYZ -1 2 0;
#X obj 0 370 triangle 1;
#X obj 346 248 translateXYZ 1 2 0;
#X obj 173 370 triangle 1;
#X obj 346 371 triangle 1;
#X obj 522 371 triangle 1;
#X obj 522 323 rotate 0 0 0 1;
#X obj 346 323 rotate 0 0 0 1;
#X obj 173 325 rotate 0 0 0 1;
#X obj 0 321 rotate 0 0 0 1;
#X obj 522 250 translateXYZ 3 2 0;
#X obj 0 245 translateXYZ -3 2 0;
#X msg 14 347 draw fill;
#X msg 187 347 draw fill;
#X msg 360 348 draw fill;
#X msg 536 348 draw fill;
#X obj 522 198 colorRGB 1 1 1 1;
#X obj 346 198 colorRGB 1 1 1 1;
#X obj 173 197 colorRGB 1 1 1 1;
#X obj 0 197 colorRGB 1 1 1 1;
#X connect 0 0 1 0;
#X connect 1 0 8 0;
#X connect 2 0 3 0;
#X connect 3 0 9 0;
#X connect 4 0 5 0;
#X connect 5 0 10 0;
#X connect 6 0 7 0;
#X connect 7 0 11 0;
#X connect 8 0 12 0;
#X connect 9 0 13 0;
#X connect 10 0 14 0;
#X connect 11 0 15 0;
#X connect 12 0 25 0;
#X connect 12 0 52 2;
#X connect 12 0 53 3;
#X connect 12 0 55 1;
#X connect 13 0 30 0;
#X connect 13 0 52 3;
#X connect 13 0 54 1;
#X connect 13 0 55 2;
#X connect 14 0 35 0;
#X connect 14 0 53 1;
#X connect 14 0 54 2;
#X connect 14 0 55 3;
#X connect 15 0 20 0;
#X connect 15 0 52 1;
#X connect 15 0 53 2;
#X connect 15 0 54 3;
#X connect 17 0 55 0;
#X connect 18 0 47 0;
#X connect 19 0 45 1;
#X connect 20 0 19 0;
#X connect 22 0 54 0;
#X connect 23 0 36 0;
#X connect 24 0 44 1;
#X connect 25 0 24 0;
#X connect 27 0 53 0;
#X connect 28 0 38 0;
#X connect 29 0 43 1;
#X connect 30 0 29 0;
#X connect 32 0 52 0;
#X connect 33 0 46 0;
#X connect 34 0 42 1;
#X connect 35 0 34 0;
#X connect 36 0 44 0;
#X connect 38 0 43 0;
#X connect 42 0 41 0;
#X connect 43 0 40 0;
#X connect 44 0 39 0;
#X connect 45 0 37 0;
#X connect 46 0 42 0;
#X connect 47 0 45 0;
#X connect 48 0 37 0;
#X connect 49 0 39 0;
#X connect 50 0 40 0;
#X connect 51 0 41 0;
#X connect 52 0 33 0;
#X connect 53 0 28 0;
#X connect 54 0 23 0;
#X connect 55 0 18 0;
#X restore 211 189 pd triangle;
#X obj 22 18 cnv 15 150 200 empty empty empty 20 12 0 14 -233017 -66577
0;
#X obj 48 59 unpack f f f f;
#X floatatom 48 88 5 0 0 0 - - -;
#X floatatom 75 108 5 0 0 0 - - -;
#X floatatom 102 129 5 0 0 0 - - -;
#X floatatom 129 150 5 0 0 0 - - -;
#N canvas 614 496 794 434 square 0;
#X obj 241 7 inlet;
#X obj 241 37 / 100;
#X obj 281 7 inlet;
#X obj 281 37 / 100;
#X obj 321 7 inlet;
#X obj 321 37 / 100;
#X obj 361 7 inlet;
#X obj 361 37 / 100;
#X floatatom 241 63 5 0 0 0 - - -;
#X floatatom 281 63 5 0 0 0 - - -;
#X floatatom 321 63 5 0 0 0 - - -;
#X floatatom 361 63 5 0 0 0 - - -;
#X obj 241 86 abs;
#X obj 281 86 abs;
#X obj 321 86 abs;
#X obj 361 86 abs;
#X obj -16 149 cnv 15 150 250 empty empty empty 20 12 0 14 -233017
-66577 0;
#X obj 1 163 gemhead;
#X msg 15 343 draw fill;
#X obj 1 219 alpha;
#X obj 1 366 square 1 1;
#X obj 41 289 mod 360;
#X obj 41 264 * 100;
#X obj 157 149 cnv 15 150 250 empty empty empty 20 12 0 14 -233017
-66577 0;
#X obj 174 163 gemhead;
#X msg 188 343 draw fill;
#X obj 174 219 alpha;
#X obj 174 366 square 1 1;
#X obj 214 290 mod 360;
#X obj 214 267 * 100;
#X obj 330 150 cnv 15 150 250 empty empty empty 20 12 0 14 -233017
-66577 0;
#X obj 347 164 gemhead;
#X msg 361 344 draw fill;
#X obj 347 220 alpha;
#X obj 347 367 square 1 1;
#X obj 387 291 mod 360;
#X obj 387 265 * 100;
#X obj 506 150 cnv 15 150 250 empty empty empty 20 12 0 14 -233017
-66577 0;
#X obj 523 164 gemhead;
#X msg 537 344 draw fill;
#X obj 523 220 alpha;
#X obj 523 367 square 1 1;
#X obj 563 291 mod 360;
#X obj 563 265 * 100;
#X obj 1 242 translateXYZ -3 0 0;
#X obj 174 244 translateXYZ -1 0 0;
#X obj 347 242 translateXYZ 1 0 0;
#X obj 523 242 translateXYZ 3 0 0;
#X obj 523 320 rotate 0 0 1 0;
#X obj 347 320 rotate 0 0 1 0;
#X obj 174 319 rotate 0 0 1 0;
#X obj 1 318 rotate 0 0 1 0;
#X obj 1 193 colorRGB 1 1 1 1;
#X obj 174 193 colorRGB 1 1 1 1;
#X obj 347 194 colorRGB 1 1 1 1;
#X obj 523 194 colorRGB 1 1 1 1;
#X connect 0 0 1 0;
#X connect 1 0 8 0;
#X connect 2 0 3 0;
#X connect 3 0 9 0;
#X connect 4 0 5 0;
#X connect 5 0 10 0;
#X connect 6 0 7 0;
#X connect 7 0 11 0;
#X connect 8 0 12 0;
#X connect 9 0 13 0;
#X connect 10 0 14 0;
#X connect 11 0 15 0;
#X connect 12 0 29 0;
#X connect 12 0 52 1;
#X connect 12 0 54 3;
#X connect 12 0 55 2;
#X connect 13 0 36 0;
#X connect 13 0 52 2;
#X connect 13 0 53 1;
#X connect 13 0 55 3;
#X connect 14 0 43 0;
#X connect 14 0 52 3;
#X connect 14 0 53 2;
#X connect 14 0 54 1;
#X connect 15 0 22 0;
#X connect 15 0 53 3;
#X connect 15 0 54 2;
#X connect 15 0 55 1;
#X connect 17 0 52 0;
#X connect 18 0 20 0;
#X connect 19 0 44 0;
#X connect 21 0 51 1;
#X connect 22 0 21 0;
#X connect 24 0 53 0;
#X connect 25 0 27 0;
#X connect 26 0 45 0;
#X connect 28 0 50 1;
#X connect 29 0 28 0;
#X connect 31 0 54 0;
#X connect 32 0 34 0;
#X connect 33 0 46 0;
#X connect 35 0 49 1;
#X connect 36 0 35 0;
#X connect 38 0 55 0;
#X connect 39 0 41 0;
#X connect 40 0 47 0;
#X connect 42 0 48 1;
#X connect 43 0 42 0;
#X connect 44 0 51 0;
#X connect 45 0 50 0;
#X connect 46 0 49 0;
#X connect 47 0 48 0;
#X connect 48 0 41 0;
#X connect 49 0 34 0;
#X connect 50 0 27 0;
#X connect 51 0 20 0;
#X connect 52 0 19 0;
#X connect 53 0 26 0;
#X connect 54 0 33 0;
#X connect 55 0 40 0;
#X restore 48 189 pd square;
#X obj 48 29 r COMP4;
#X connect 1 0 2 0;
#X connect 1 1 3 0;
#X connect 1 2 4 0;
#X connect 1 3 5 0;
#X connect 2 0 6 0;
#X connect 3 0 6 1;
#X connect 4 0 6 2;
#X connect 5 0 6 3;
#X connect 7 0 1 0;
#X connect 9 0 10 0;
#X connect 9 1 11 0;
#X connect 9 2 12 0;
#X connect 9 3 13 0;
#X connect 10 0 15 0;
#X connect 11 0 15 1;
#X connect 12 0 15 2;
#X connect 13 0 15 3;
#X connect 14 0 9 0;
#X connect 17 0 18 0;
#X connect 17 1 19 0;
#X connect 17 2 20 0;
#X connect 17 3 21 0;
#X connect 18 0 22 0;
#X connect 19 0 22 1;
#X connect 20 0 22 2;
#X connect 21 0 22 3;
#X connect 23 0 17 0;
#X restore 15 -240 pd vizualize;
#X obj 689 -345 cnv 15 100 150 empty empty empty 20 12 0 14 -162280
-66577 0;
#X msg 712 -301 \; pd dsp \$1;
#X obj 712 -324 tgl 20 0 empty empty empty 25 8 0 8 -258699 -1 -1 0
1;
#N canvas 1192 462 538 257 sonicize 0;
#X obj 19 15 cnv 15 150 200 empty empty empty 20 12 0 14 -233017 -66577
0;
#X obj 45 56 unpack f f f f;
#X floatatom 45 85 5 0 0 0 - - -;
#X floatatom 72 105 5 0 0 0 - - -;
#X floatatom 99 126 5 0 0 0 - - -;
#X floatatom 126 147 5 0 0 0 - - -;
#X obj 45 26 r COMP1;
#N canvas 602 22 496 613 drums 1;
#X obj 160 20 inlet;
#X obj 200 20 inlet;
#X obj 240 20 inlet;
#X obj 280 20 inlet;
#X obj 160 51 abs;
#X obj 200 51 abs;
#X obj 240 51 abs;
#X obj 280 51 abs;
#X floatatom 160 80 5 0 0 0 - - -;
#X obj 160 104 clip 0 100;
#X obj 160 158 i;
#X floatatom 160 187 5 0 0 0 - - -;
#X obj 160 131 / 12.5;
#X obj 160 525 readsf~;
#X obj 160 559 dac~;
#X obj 160 221 select 1 2 3 4 5 6 7 8;
#X msg 160 265 open ../_SAMPLES/drums/01.wav;
#X obj 86 477 delay 100;
#X msg 86 500 start;
#X obj 86 455 bng 15 250 50 0 empty empty empty 17 7 0 10 -262144 -1
-1;
#X msg 168 290 open ../_SAMPLES/drums/02.wav;
#X msg 173 314 open ../_SAMPLES/drums/03.wav;
#X msg 181 339 open ../_SAMPLES/drums/04.wav;
#X msg 187 364 open ../_SAMPLES/drums/05.wav;
#X msg 195 389 open ../_SAMPLES/drums/06.wav;
#X msg 200 413 open ../_SAMPLES/drums/07.wav;
#X msg 208 438 open ../_SAMPLES/drums/08.wav;
#X floatatom 233 80 5 0 0 0 - - -;
#X obj 233 104 clip 0 100;
#X obj 233 158 i;
#X floatatom 233 187 5 0 0 0 - - -;
#X obj 233 131 / 12.5;
#X floatatom 305 80 5 0 0 0 - - -;
#X obj 305 104 clip 0 100;
#X obj 305 158 i;
#X floatatom 305 187 5 0 0 0 - - -;
#X obj 305 131 / 12.5;
#X floatatom 377 80 5 0 0 0 - - -;
#X obj 377 104 clip 0 100;
#X obj 377 158 i;
#X floatatom 377 187 5 0 0 0 - - -;
#X obj 377 131 / 12.5;
#X connect 0 0 4 0;
#X connect 1 0 5 0;
#X connect 2 0 6 0;
#X connect 3 0 7 0;
#X connect 4 0 8 0;
#X connect 5 0 27 0;
#X connect 6 0 32 0;
#X connect 7 0 37 0;
#X connect 8 0 9 0;
#X connect 9 0 12 0;
#X connect 10 0 11 0;
#X connect 11 0 15 0;
#X connect 12 0 10 0;
#X connect 13 0 14 0;
#X connect 13 0 14 1;
#X connect 15 0 16 0;
#X connect 15 1 20 0;
#X connect 15 2 21 0;
#X connect 15 3 22 0;
#X connect 15 4 23 0;
#X connect 15 5 24 0;
#X connect 15 6 25 0;
#X connect 15 7 26 0;
#X connect 16 0 13 0;
#X connect 16 0 19 0;
#X connect 17 0 18 0;
#X connect 18 0 13 0;
#X connect 19 0 17 0;
#X connect 20 0 13 0;
#X connect 20 0 19 0;
#X connect 21 0 13 0;
#X connect 21 0 19 0;
#X connect 22 0 13 0;
#X connect 22 0 19 0;
#X connect 23 0 13 0;
#X connect 23 0 19 0;
#X connect 24 0 13 0;
#X connect 24 0 19 0;
#X connect 25 0 13 0;
#X connect 25 0 19 0;
#X connect 26 0 13 0;
#X connect 26 0 19 0;
#X connect 27 0 28 0;
#X connect 28 0 31 0;
#X connect 29 0 30 0;
#X connect 30 0 15 0;
#X connect 31 0 29 0;
#X connect 32 0 33 0;
#X connect 33 0 36 0;
#X connect 34 0 35 0;
#X connect 35 0 15 0;
#X connect 36 0 34 0;
#X connect 37 0 38 0;
#X connect 38 0 41 0;
#X connect 39 0 40 0;
#X connect 40 0 15 0;
#X connect 41 0 39 0;
#X restore 45 186 pd drums;
#X obj 182 15 cnv 15 150 200 empty empty empty 20 12 0 14 -233017 -66577
0;
#X obj 208 56 unpack f f f f;
#X floatatom 208 85 5 0 0 0 - - -;
#X floatatom 235 105 5 0 0 0 - - -;
#X floatatom 262 126 5 0 0 0 - - -;
#X floatatom 289 147 5 0 0 0 - - -;
#X obj 208 26 r COMP2;
#N canvas 1092 491 323 559 steps 0;
#X obj 75 244 inlet;
#X obj 95 268 inlet;
#X obj 117 301 inlet;
#X obj 135 326 inlet;
#X obj 60 47 tgl 15 0 empty empty empty 17 7 0 10 -262144 -1 -1 0 1
;
#X obj 60 75 metro 300;
#X msg 60 16 loadbang;
#X obj 60 103 f;
#X obj 91 103 + 1;
#X floatatom 60 131 5 0 0 0 - - -;
#X obj 60 157 mod 4;
#X obj 60 186 hradio 15 1 0 4 empty empty empty 0 -8 0 10 -262144 -1
-1 1;
#X obj 60 213 select 0 1 2 3;
#X obj 60 271 f;
#X obj 80 298 f;
#X obj 102 324 f;
#X obj 120 353 f;
#X obj 60 394 mtof;
#X obj 60 422 osc~;
#X obj 60 463 *~;
#X obj 100 404 vsl 15 45 0 1 0 0 empty empty empty 0 -9 0 10 -262144
-1 -1 2700 1;
#X obj 60 495 dac~;
#X connect 0 0 13 1;
#X connect 1 0 14 1;
#X connect 2 0 15 1;
#X connect 3 0 16 1;
#X connect 4 0 5 0;
#X connect 5 0 7 0;
#X connect 6 0 4 0;
#X connect 7 0 8 0;
#X connect 7 0 9 0;
#X connect 8 0 7 1;
#X connect 9 0 10 0;
#X connect 10 0 11 0;
#X connect 11 0 12 0;
#X connect 12 0 13 0;
#X connect 12 1 14 0;
#X connect 12 2 15 0;
#X connect 12 3 16 0;
#X connect 13 0 17 0;
#X connect 14 0 17 0;
#X connect 15 0 17 0;
#X connect 16 0 17 0;
#X connect 17 0 18 0;
#X connect 18 0 19 0;
#X connect 19 0 21 0;
#X connect 19 0 21 1;
#X connect 20 0 19 1;
#X restore 208 186 pd steps;
#X obj 345 15 cnv 15 150 200 empty empty empty 20 12 0 14 -233017 -66577
0;
#X obj 371 56 unpack f f f f;
#X floatatom 371 85 5 0 0 0 - - -;
#X floatatom 398 105 5 0 0 0 - - -;
#X floatatom 425 126 5 0 0 0 - - -;
#X floatatom 452 147 5 0 0 0 - - -;
#X obj 371 26 r COMP3;
#N canvas 857 657 450 300 synth 0;
#X obj 165 22 inlet;
#X obj 165 52 / 100;
#X obj 205 22 inlet;
#X obj 205 52 / 100;
#X obj 245 22 inlet;
#X obj 245 52 / 100;
#X obj 285 22 inlet;
#X obj 285 52 / 100;
#X floatatom 165 78 5 0 0 0 - - -;
#X floatatom 205 78 5 0 0 0 - - -;
#X floatatom 245 78 5 0 0 0 - - -;
#X floatatom 285 78 5 0 0 0 - - -;
#X obj 165 101 abs;
#X obj 205 101 abs;
#X obj 245 101 abs;
#X obj 285 101 abs;
#X connect 0 0 1 0;
#X connect 1 0 8 0;
#X connect 2 0 3 0;
#X connect 3 0 9 0;
#X connect 4 0 5 0;
#X connect 5 0 10 0;
#X connect 6 0 7 0;
#X connect 7 0 11 0;
#X connect 8 0 12 0;
#X connect 9 0 13 0;
#X connect 10 0 14 0;
#X connect 11 0 15 0;
#X restore 371 186 pd synth;
#X connect 1 0 2 0;
#X connect 1 1 3 0;
#X connect 1 2 4 0;
#X connect 1 3 5 0;
#X connect 2 0 7 0;
#X connect 3 0 7 1;
#X connect 4 0 7 2;
#X connect 5 0 7 3;
#X connect 6 0 1 0;
#X connect 9 0 10 0;
#X connect 9 1 11 0;
#X connect 9 2 12 0;
#X connect 9 3 13 0;
#X connect 10 0 15 0;
#X connect 11 0 15 1;
#X connect 12 0 15 2;
#X connect 13 0 15 3;
#X connect 14 0 9 0;
#X connect 17 0 18 0;
#X connect 17 1 19 0;
#X connect 17 2 20 0;
#X connect 17 3 21 0;
#X connect 18 0 23 0;
#X connect 19 0 23 1;
#X connect 20 0 23 2;
#X connect 21 0 23 3;
#X connect 22 0 17 0;
#X restore 14 -262 pd sonicize;
#N canvas 0 22 450 300 gemwin 0;
#X obj 132 136 gemwin;
#X obj 67 89 outlet;
#X obj 67 10 inlet;
#X obj 67 41 route create;
#X msg 67 70 set destroy;
#X msg 142 68 set create;
#X msg 198 112 destroy;
#X msg 132 112 create \, 1;
#X connect 2 0 3 0;
#X connect 3 0 4 0;
#X connect 3 0 7 0;
#X connect 3 1 5 0;
#X connect 3 1 6 0;
#X connect 4 0 1 0;
#X connect 5 0 1 0;
#X connect 6 0 0 0;
#X connect 7 0 0 0;
#X restore 712 -241 pd gemwin;
#X msg 712 -260 create;
#X connect 3 0 2 0;
#X connect 4 0 2 1;
#X connect 5 0 2 2;
#X connect 6 0 2 3;
#X connect 7 0 8 0;
#X connect 7 1 9 0;
#X connect 7 2 10 0;
#X connect 7 3 11 0;
#X connect 16 0 12 0;
#X connect 16 1 13 0;
#X connect 16 2 14 0;
#X connect 16 3 15 0;
#X connect 25 0 17 0;
#X connect 25 1 18 0;
#X connect 25 2 19 0;
#X connect 25 3 20 0;
#X connect 26 0 21 0;
#X connect 26 1 22 0;
#X connect 26 2 23 0;
#X connect 26 3 24 0;
#X connect 35 0 27 0;
#X connect 35 1 28 0;
#X connect 35 2 29 0;
#X connect 35 3 30 0;
#X connect 36 0 31 0;
#X connect 36 1 32 0;
#X connect 36 2 33 0;
#X connect 36 3 34 0;
#X connect 40 0 39 0;
#X connect 42 0 43 0;
#X connect 43 0 42 0;
