#N canvas 321 22 742 918 10;
#X declare -lib mrpeach;
#X obj -62 27 cnv 15 400 400 empty empty empty 20 20 0 14 -261234 -66577
0;
#X obj -35 57 import mrpeach;
#X msg -35 87 connect localhost 3001;
#X obj -35 384 udpsend;
#X obj -11 360 packOSC;
#X msg -24 113 disconnect;
#X obj 147 53 cnv 15 75 100 empty empty empty 20 12 0 14 -204786 -66577
0;
#X floatatom 166 99 0 0 0 0 - - -;
#X obj 166 65 inlet;
#X obj 166 127 s CH1;
#X obj 240 53 cnv 15 75 100 empty empty empty 20 12 0 14 -204786 -66577
0;
#X floatatom 259 99 0 0 0 0 - - -;
#X obj 259 65 inlet;
#X obj 147 170 cnv 15 75 100 empty empty empty 20 12 0 14 -204786 -66577
0;
#X floatatom 166 216 0 0 0 0 - - -;
#X obj 166 182 inlet;
#X obj 240 170 cnv 15 75 100 empty empty empty 20 12 0 14 -204786 -66577
0;
#X floatatom 259 216 0 0 0 0 - - -;
#X obj 259 182 inlet;
#X obj 259 244 s CH4;
#X obj 166 244 s CH3;
#X obj 259 127 s CH2;
#X obj -11 153 r CH1;
#X msg -11 181 send /CH1 \$1;
#X obj 2 202 r CH2;
#X msg 2 230 send /CH2 \$1;
#X obj 14 253 r CH3;
#X msg 14 281 send /CH3 \$1;
#X obj 27 302 r CH4;
#X msg 27 330 send /CH4 \$1;
#X connect 2 0 3 0;
#X connect 4 0 3 0;
#X connect 5 0 3 0;
#X connect 7 0 9 0;
#X connect 8 0 7 0;
#X connect 11 0 21 0;
#X connect 12 0 11 0;
#X connect 14 0 20 0;
#X connect 15 0 14 0;
#X connect 17 0 19 0;
#X connect 18 0 17 0;
#X connect 22 0 23 0;
#X connect 23 0 4 0;
#X connect 24 0 25 0;
#X connect 25 0 4 0;
#X connect 26 0 27 0;
#X connect 27 0 4 0;
#X connect 28 0 29 0;
#X connect 29 0 4 0;
