#N canvas 599 22 742 918 10;
#X obj 30 39 cnv 15 300 300 empty empty empty 20 20 0 14 -233017 -66577
0;
#X msg 50 125 bang;
#X floatatom 152 97 5 0 0 0 - - -;
#X msg 152 160 25;
#X msg 152 126 set \$1;
#X floatatom 97 97 5 0 0 0 - - -;
#X msg 97 159 63;
#X msg 97 126 set \$1;
#X floatatom 205 97 5 0 0 0 - - -;
#X msg 205 160 22;
#X msg 205 126 set \$1;
#X floatatom 260 97 5 0 0 0 - - -;
#X msg 260 160 10;
#X msg 260 126 set \$1;
#X obj 97 258 list2symbol .;
#X obj 97 211 pack f f f f;
#X obj 97 289 print ip;
#X obj 160 289 outlet;
#X connect 1 0 15 0;
#X connect 1 0 6 0;
#X connect 1 0 3 0;
#X connect 1 0 9 0;
#X connect 1 0 12 0;
#X connect 2 0 4 0;
#X connect 3 0 15 1;
#X connect 4 0 3 0;
#X connect 5 0 7 0;
#X connect 6 0 15 0;
#X connect 7 0 6 0;
#X connect 8 0 10 0;
#X connect 9 0 15 2;
#X connect 10 0 9 0;
#X connect 11 0 13 0;
#X connect 12 0 15 3;
#X connect 13 0 12 0;
#X connect 14 0 16 0;
#X connect 14 0 17 0;
#X connect 15 0 14 0;
