#N canvas 394 165 937 723 10;
#X obj 470 66 cnv 15 400 300 empty empty SYMBOL 20 20 0 14 -233017
-66577 0;
#X symbolatom 670 280 10 0 0 0 - - -;
#X msg 670 172 nope;
#X obj 670 244 symbol;
#X msg 687 201 yes;
#X msg 727 201 si;
#X obj 17 -286 cnv 15 400 300 empty empty |OBJECT| 20 20 0 14 -233017
-99865 0;
#X obj 82 -159 print;
#X obj 200 -159 receive;
#X obj 259 -159 osc~;
#X text 37 -126 ALMOST EVERY OBJECT HAS A HELP PATCH \; YOU CAN SHOW
IT BY RIGHT-CLICKINGON THE OBJECT ITSELF AND CHOOSING HELP;
#X text 37 -65 IF THE OBJECT CREATED DOESN'T EXIST OR IT IS NOT FOUND
IT WILL APPEAR AS A RED DOTTED BOX;
#X obj 18 66 cnv 15 400 300 empty empty |NUMBER 20 20 0 14 -233017
-99865 0;
#X floatatom 168 197 5 0 0 0 - - -;
#X obj 123 220 print;
#X floatatom 167 220 5 0 0 0 - - -;
#X text 39 98 NUMBERS BOX LET YOU SHOW NUMERICAL VALUES SENDING THE
VALUE THROUGHT THE OUTLET. DRAGGING ON TOP OF IT YOU CAN CHANGE THE
CURRENT VALUE;
#X obj 471 -286 cnv 15 400 300 empty empty |MESSAGE( 20 20 0 14 -233017
-99865 0;
#X obj 496 -187 print;
#X obj 495 -49 print;
#X msg 495 -121 10 20;
#X text 495 -250 MESSAGES LET YOU CREATE AN SEND CHARACTER STRINGS
\, AS SINGLE WORD OR AS LIST OF WORDS;
#X msg 496 -214 a message is a character string;
#X obj 670 315 print;
#X text 515 26 comment;
#X obj 151 -19 bad_object;
#X text 36 -250 THE BASIC FUNCTIONS ARE THE OBJECTS EVERY ONE LETS
YOU PROCESS DATA IN A SPECIFIC WAY;
#X text 36 -204 DEPENDING ON THE FUNCTION IT HAS DIFFERENT INLETS AND/OR
OUTLETS;
#X obj 159 -159 send;
#X msg 495 -85 Number 1 is \$1 + Number 2 is \$2;
#X text 495 -168 YOU CAN CREATE A MESSAGE CHAIN BY USING $ SYMBOL.
THIS RELECTS THE INCOMING VALUE;
#X text 486 99 USE A SYMBOL OBJECT TO SHOW THE VALUE OF A SYMBOL VARIABLE.
IT'S USEFULL FOR SOME OBJECTS THAT NEED INCOMING DATA OF THIS KIND
OR SEND THIS TYPE OF DATA THROUGHT HIS OUTLET;
#X obj 124 -159 +;
#X connect 1 0 23 0;
#X connect 2 0 1 0;
#X connect 3 0 1 0;
#X connect 4 0 3 0;
#X connect 5 0 3 0;
#X connect 13 0 14 0;
#X connect 13 0 15 0;
#X connect 20 0 29 0;
#X connect 22 0 18 0;
#X connect 29 0 19 0;
