#N canvas 145 52 737 383 10;
#X obj 28 28 cnv 15 500 150 empty empty HOT_+_COLD 20 20 0 14 -233017
-66577 0;
#X floatatom 49 89 5 0 0 0 - - -;
#X floatatom 91 89 5 0 0 0 - - -;
#X floatatom 49 150 5 0 0 0 - - -;
#X obj 49 121 +;
#X text 150 85 The left-most inlet is the "hot" inlet. It is acted
on by an object immediately.;
#X text 149 119 All other inlets are "cold". This means they are stored
in the object until a "hot" inlet is activated.;
#X text 46 64 "hot";
#X text 86 64 "cold";
#X connect 1 0 4 0;
#X connect 2 0 4 1;
#X connect 4 0 3 0;
