#N canvas 935 22 596 930 10;
#X obj 47 39 cnv 15 350 350 empty empty OSC 20 20 0 14 -233017 -66577
0;
#X obj 70 85 dumpOSC 8000;
#X obj 70 168 routeOSC /1 /2 /3;
#X floatatom 84 255 5 0 0 0 - - -;
#X floatatom 141 255 5 0 0 0 - - -;
#X floatatom 198 255 5 0 0 0 - - -;
#X floatatom 255 255 5 0 0 0 - - -;
#X obj 110 113 print OSC;
#X obj 84 210 routeOSC /fader1 /fader2 /fader3 /fader4 /fader5;
#X floatatom 312 255 5 0 0 0 - - -;
#X obj 70 293 routeOSC /toggle1 /toggle2 /toggle3 /toggle4;
#X obj 265 328 tgl 15 0 empty empty empty 17 7 0 10 -262144 -1 -1 0
1;
#X obj 70 323 tgl 15 0 empty empty empty 17 7 0 10 -262144 -1 -1 1
1;
#X obj 135 324 tgl 15 0 empty empty empty 17 7 0 10 -262144 -1 -1 1
1;
#X obj 200 325 tgl 15 0 empty empty empty 17 7 0 10 -262144 -1 -1 1
1;
#X connect 1 0 2 0;
#X connect 1 0 7 0;
#X connect 2 0 8 0;
#X connect 2 0 10 0;
#X connect 8 0 3 0;
#X connect 8 1 4 0;
#X connect 8 2 5 0;
#X connect 8 3 6 0;
#X connect 8 4 9 0;
#X connect 10 0 12 0;
#X connect 10 1 13 0;
#X connect 10 2 14 0;
#X connect 10 3 11 0;
