#N canvas 935 22 596 930 10;
#X obj 47 39 cnv 15 350 350 empty empty ARDUINO 20 20 0 14 -233017
-66577 0;
#X obj 73 276 arduino 1;
#X obj 73 312 print;
#X text 156 51 ::: REQUIRES PDUINO LIBRARY FROM;
#X text 180 66 at.or.at/hans/pd/objects.html;
#X msg 73 146 open \$1;
#X msg 73 117 4;
#X msg 110 227 digital 13 \$1;
#X obj 110 206 tgl 15 0 empty empty empty 0 -6 0 8 -262144 -1 -1 0
1;
#X msg 90 173 pinMode 13 output;
#X text 119 116 <-- CHANGE THIS TO THE RIGHT PORT;
#X text 136 146 <-- CLICK FIRST;
#X text 213 172 <-- SET PIN 13 TO BE OUTPUT;
#X text 215 205 <-- TOGGLE PIN 13;
#X connect 1 0 2 0;
#X connect 5 0 1 0;
#X connect 6 0 5 0;
#X connect 7 0 1 0;
#X connect 8 0 7 0;
#X connect 9 0 1 0;
