#N canvas 935 22 596 930 10;
#X obj 47 39 cnv 15 350 350 empty empty MIDI 20 20 0 14 -233017 -66577
0;
#X floatatom 72 254 5 0 0 0 - - -;
#X obj 56 222 notein;
#X obj 56 297 select 52 53 54 55 56 57 58 59 60 61 62 63 64 65 66 67
;
#X obj 56 340 tgl 15 0 empty empty empty 17 7 0 10 -262144 -1 -1 0
1;
#X obj 76 340 tgl 15 0 empty empty empty 17 7 0 10 -262144 -1 -1 0
1;
#X obj 96 340 tgl 15 0 empty empty empty 17 7 0 10 -262144 -1 -1 0
1;
#X obj 116 340 tgl 15 0 empty empty empty 17 7 0 10 -262144 -1 -1 0
1;
#X obj 136 340 tgl 15 0 empty empty empty 17 7 0 10 -262144 -1 -1 0
1;
#X obj 156 340 tgl 15 0 empty empty empty 17 7 0 10 -262144 -1 -1 0
1;
#X obj 176 340 tgl 15 0 empty empty empty 17 7 0 10 -262144 -1 -1 0
1;
#X obj 196 340 tgl 15 0 empty empty empty 17 7 0 10 -262144 -1 -1 0
1;
#X obj 216 340 tgl 15 0 empty empty empty 17 7 0 10 -262144 -1 -1 0
1;
#X obj 236 340 tgl 15 0 empty empty empty 17 7 0 10 -262144 -1 -1 0
1;
#X obj 256 340 tgl 15 0 empty empty empty 17 7 0 10 -262144 -1 -1 0
1;
#X obj 276 340 tgl 15 0 empty empty empty 17 7 0 10 -262144 -1 -1 0
1;
#X obj 296 340 tgl 15 0 empty empty empty 17 7 0 10 -262144 -1 -1 0
1;
#X obj 316 340 tgl 15 0 empty empty empty 17 7 0 10 -262144 -1 -1 0
1;
#X obj 336 340 tgl 15 0 empty empty empty 17 7 0 10 -262144 -1 -1 0
1;
#X obj 356 340 tgl 15 0 empty empty empty 17 7 0 10 -262144 -1 -1 0
1;
#X text 58 100 For MIDI COntrollers \, simply change the Input device
in "MEDIA > MIDI Settings";
#X text 55 191 KORG NANOPAD 2;
#X text 71 270 velocity;
#X obj 49 572 vsl 15 60 0 127 0 0 empty empty empty 0 -9 0 10 -262144
-1 -1 2973 1;
#X obj 49 545 ctlin 0;
#X obj 101 572 vsl 15 60 0 127 0 0 empty empty empty 0 -9 0 10 -262144
-1 -1 4042 1;
#X obj 101 545 ctlin 1;
#X obj 155 572 vsl 15 60 0 127 0 0 empty empty empty 0 -9 0 10 -262144
-1 -1 3438 1;
#X obj 207 572 vsl 15 60 0 127 0 0 empty empty empty 0 -9 0 10 -262144
-1 -1 3159 1;
#X obj 155 545 ctlin 2;
#X obj 207 545 ctlin 3;
#X obj 258 572 vsl 15 60 0 127 0 0 empty empty empty 0 -9 0 10 -262144
-1 -1 3949 1;
#X obj 312 572 vsl 15 60 0 127 0 0 empty empty empty 0 -9 0 10 -262144
-1 -1 3856 1;
#X obj 364 572 vsl 15 60 0 127 0 0 empty empty empty 0 -9 0 10 -262144
-1 -1 3763 1;
#X obj 258 545 ctlin 4;
#X obj 312 545 ctlin 5;
#X obj 364 545 ctlin 6;
#X obj 48 509 knob 24 24 0 127 0 0 empty empty empty 0 -8 0 8 -262144
-1 -1 0 1;
#X obj 48 478 ctlin 16;
#X obj 111 509 knob 24 24 0 127 0 0 empty empty empty 0 -8 0 8 -262144
-1 -1 0 1;
#X obj 111 478 ctlin 17;
#X obj 168 509 knob 24 24 0 127 0 0 empty empty empty 0 -8 0 8 -262144
-1 -1 887 1;
#X obj 231 509 knob 24 24 0 127 0 0 empty empty empty 0 -8 0 8 -262144
-1 -1 489 1;
#X obj 168 478 ctlin 18;
#X obj 231 478 ctlin 19;
#X obj 291 509 knob 24 24 0 127 0 0 empty empty empty 0 -8 0 8 -262144
-1 -1 272 1;
#X obj 348 509 knob 24 24 0 127 0 0 empty empty empty 0 -8 0 8 -262144
-1 -1 181 1;
#X obj 411 509 knob 24 24 0 127 0 0 empty empty empty 0 -8 0 8 -262144
-1 -1 0 1;
#X obj 291 478 ctlin 20;
#X obj 348 478 ctlin 21;
#X obj 411 478 ctlin 23;
#X text 48 446 KORG NANOKNTRL 2;
#X connect 2 0 3 0;
#X connect 2 1 1 0;
#X connect 3 0 4 0;
#X connect 3 1 5 0;
#X connect 3 2 6 0;
#X connect 3 3 7 0;
#X connect 3 4 8 0;
#X connect 3 5 9 0;
#X connect 3 6 10 0;
#X connect 3 7 11 0;
#X connect 3 8 12 0;
#X connect 3 9 13 0;
#X connect 3 10 14 0;
#X connect 3 11 15 0;
#X connect 3 12 16 0;
#X connect 3 13 17 0;
#X connect 3 14 18 0;
#X connect 3 15 19 0;
#X connect 24 0 23 0;
#X connect 26 0 25 0;
#X connect 29 0 27 0;
#X connect 30 0 28 0;
#X connect 34 0 31 0;
#X connect 35 0 32 0;
#X connect 36 0 33 0;
#X connect 38 0 37 0;
#X connect 40 0 39 0;
#X connect 43 0 41 0;
#X connect 44 0 42 0;
#X connect 48 0 45 0;
#X connect 49 0 46 0;
#X connect 50 0 47 0;
