#N canvas 935 22 596 930 10;
#X obj 47 39 cnv 15 350 350 empty empty MIDI 20 20 0 14 -233017 -66577
0;
#X floatatom 69 148 5 0 0 0 - - -;
#X floatatom 114 148 5 0 0 0 - - -;
#X obj 69 121 notein 1;
#X floatatom 158 148 5 0 0 0 - - -;
#X floatatom 203 148 5 0 0 0 - - -;
#X obj 158 121 notein 2;
#X connect 3 0 1 0;
#X connect 3 1 2 0;
#X connect 6 0 4 0;
#X connect 6 1 5 0;
