#N canvas 598 22 890 945 10;
#X obj 47 39 cnv 15 350 350 empty empty WIIMOTE 20 20 0 14 -233017
-66577 0;
#X msg 95 144 connect;
#X msg 108 165 disconnect;
#X obj 185 140 tgl 15 0 empty empty empty 0 -6 0 8 -262144 -1 -1 0
1;
#X obj 261 139 tgl 15 0 empty empty empty 0 -6 0 8 -262144 -1 -1 0
1;
#X obj 94 222 metro 100;
#X obj 94 201 tgl 15 0 empty empty empty 0 -6 0 8 -262144 -1 -1 0 1
;
#X msg 56 220 bang;
#X obj 366 463 pddp/print;
#X obj 321 493 pddp/print;
#X obj 321 347 route remote;
#X msg 470 227 getbattery;
#X msg 470 247 getled;
#X msg 470 267 getexpansion;
#X obj 456 368 print RIGHT;
#X obj 220 367 print LEFT;
#X obj 321 413 route motion buttons ir;
#X obj 411 434 pddp/print;
#X msg 261 161 ir \$1;
#X msg 185 162 motion \$1;
#X obj 311 139 tgl 15 0 empty empty empty 0 -6 0 8 -262144 -1 -1 0
1;
#X msg 311 161 vibration \$1;
#X obj 401 139 tgl 15 0 empty empty empty 0 -6 0 8 -262144 -1 -1 0
1;
#X msg 401 161 expansion \$1;
#X obj 491 139 tgl 15 0 empty empty empty 0 -6 0 8 -262144 -1 -1 0
1;
#X msg 491 160 extraoutput \$1;
#X msg 470 289 getaddress;
#X obj 270 325 akawiiremote;
#X obj 301 526 print;
#X connect 1 0 27 0;
#X connect 2 0 27 0;
#X connect 3 0 19 0;
#X connect 4 0 18 0;
#X connect 5 0 27 0;
#X connect 6 0 5 0;
#X connect 7 0 27 0;
#X connect 10 0 16 0;
#X connect 10 1 14 0;
#X connect 11 0 27 0;
#X connect 12 0 27 0;
#X connect 13 0 27 0;
#X connect 16 0 9 0;
#X connect 16 0 28 0;
#X connect 16 1 8 0;
#X connect 16 2 17 0;
#X connect 18 0 27 0;
#X connect 19 0 27 0;
#X connect 20 0 21 0;
#X connect 21 0 27 0;
#X connect 22 0 23 0;
#X connect 23 0 27 0;
#X connect 24 0 25 0;
#X connect 25 0 27 0;
#X connect 26 0 27 0;
#X connect 27 0 15 0;
#X connect 27 1 10 0;
