#N canvas 903 22 596 930 10;
#X declare -lib mrpeach;
#X obj 47 39 cnv 15 350 350 empty empty WIIMOTE 20 20 0 14 -233017
-66577 0;
#X obj 283 64 import mrpeach;
#X obj 69 135 unpackOSC;
#X obj 69 202 routeOSC /wii;
#X obj 69 253 s wii-\$1;
#N canvas 445 129 645 779 wii-button 0;
#X obj -66 16 r wii-\$1;
#X obj -66 39 routeOSC /button;
#X obj -66 60 s wii-\$1-button;
#X obj 71 4 cnv 15 450 750 empty empty WIIMOTE 20 20 0 14 -233017 -66577
0;
#X obj 229 268 r wii-\$1-button;
#X obj 229 289 routeOSC /A;
#X obj 230 358 r wii-\$1-button;
#X obj 230 379 routeOSC /B;
#X obj 226 21 r wii-\$1-button;
#X obj 226 42 routeOSC /Up;
#X obj 229 165 r wii-\$1-button;
#X obj 229 186 routeOSC /Down;
#X obj 105 95 r wii-\$1-button;
#X obj 355 92 r wii-\$1-button;
#X obj 105 116 routeOSC /Left;
#X obj 355 113 routeOSC /Right;
#X obj 403 471 r wii-\$1-button;
#X obj 86 467 r wii-\$1-button;
#X obj 230 470 r wii-\$1-button;
#X obj 403 492 routeOSC /Plus;
#X obj 86 488 routeOSC /Minus;
#X obj 230 491 routeOSC /Home;
#X obj 232 662 r wii-\$1-button;
#X obj 230 567 r wii-\$1-button;
#X obj 232 683 routeOSC /2;
#X obj 230 588 routeOSC /1;
#X obj 226 69 tgl 30 0 empty empty empty 17 7 0 10 -191407 -1 -1 0
1;
#X obj 355 141 tgl 30 0 empty empty empty 17 7 0 10 -191407 -1 -1 0
1;
#X obj 105 143 tgl 30 0 empty empty empty 17 7 0 10 -191407 -1 -1 0
1;
#X obj 229 208 tgl 30 0 empty empty empty 17 7 0 10 -191407 -1 -1 0
1;
#X obj 229 315 tgl 30 0 empty empty empty 17 7 0 10 -191407 -1 -1 0
1;
#X obj 230 404 tgl 30 0 empty empty empty 17 7 0 10 -191407 -1 -1 0
1;
#X obj 86 515 tgl 30 0 empty empty empty 17 7 0 10 -191407 -1 -1 0
1;
#X obj 230 518 tgl 30 0 empty empty empty 17 7 0 10 -191407 -1 -1 0
1;
#X obj 403 519 tgl 30 0 empty empty empty 17 7 0 10 -191407 -1 -1 0
1;
#X obj 230 613 tgl 30 0 empty empty empty 17 7 0 10 -191407 -1 -1 0
1;
#X obj 232 708 tgl 30 0 empty empty empty 17 7 0 10 -191407 -1 -1 0
1;
#X connect 0 0 1 0;
#X connect 1 0 2 0;
#X connect 4 0 5 0;
#X connect 5 0 30 0;
#X connect 6 0 7 0;
#X connect 7 0 31 0;
#X connect 8 0 9 0;
#X connect 9 0 26 0;
#X connect 10 0 11 0;
#X connect 11 0 29 0;
#X connect 12 0 14 0;
#X connect 13 0 15 0;
#X connect 14 0 28 0;
#X connect 15 0 27 0;
#X connect 16 0 19 0;
#X connect 17 0 20 0;
#X connect 18 0 21 0;
#X connect 19 0 34 0;
#X connect 20 0 32 0;
#X connect 21 0 33 0;
#X connect 22 0 24 0;
#X connect 23 0 25 0;
#X connect 24 0 36 0;
#X connect 25 0 35 0;
#X restore 69 295 pd wii-button;
#N canvas 824 299 571 393 wii-accelerometer 0;
#X obj 163 67 r wii-\$1;
#X obj 163 88 routeOSC /accel;
#X obj 163 109 routeOSC /pry;
#X obj 163 138 unpack f f f f;
#X floatatom 217 292 5 0 0 1 FORWARD/BACK - -;
#X floatatom 163 205 5 0 0 0 UP/DOWN - -;
#X floatatom 190 252 5 0 0 0 LEFT/RIGHT - -;
#X floatatom 244 183 5 0 0 1 ACCELERATION - -;
#X connect 0 0 1 0;
#X connect 1 0 2 0;
#X connect 2 0 3 0;
#X connect 3 0 5 0;
#X connect 3 1 6 0;
#X connect 3 2 4 0;
#X connect 3 3 7 0;
#X restore 69 321 pd wii-accelerometer;
#N canvas 584 372 534 300 wii-IR 0;
#X obj 75 53 r wii-\$1;
#X floatatom 75 159 5 0 0 0 X - -;
#X floatatom 132 160 5 0 0 0 Y - -;
#X obj 75 74 routeOSC /ir;
#X obj 75 124 unpack f f;
#X connect 0 0 3 0;
#X connect 3 0 4 0;
#X connect 4 0 1 0;
#X connect 4 1 2 0;
#X restore 69 347 pd wii-IR;
#N canvas 324 94 909 629 address-space 0;
#X text 337 367 (left/right);
#X text 337 386 (up/down);
#X text 497 107 /wii/\$1/accel/pry;
#X text 777 107 (up/down);
#X text 777 127 (left/right);
#X text 777 146 (forward/back);
#X text 777 166 (acceleration);
#X text 27 107 /wii/\$1/button/A;
#X text 27 127 /wii/\$1/button/B;
#X text 27 307 /wii/\$1/button/2;
#X text 27 287 /wii/\$1/button/1;
#X text 237 107 wii-\$1-button-a;
#X text 237 127 wii-\$1-button-b;
#X text 237 147 wii-\$1-button-up;
#X text 237 167 wii-\$1-button-down;
#X text 237 187 wii-\$1-button-left;
#X text 237 207 wii-\$1-button-right;
#X text 237 227 wii-\$1-button-minus;
#X text 237 247 wii-\$1-button-plus;
#X text 237 267 wii-\$1-button-home;
#X text 237 287 wii-\$1-button-one;
#X text 237 307 wii-\$1-button-two;
#X text 27 147 /wii/button/Up;
#X text 27 167 /wii/\$1/button/Down;
#X text 27 187 /wii/\$1/button/Left;
#X text 27 207 /wii/\$1/button/Right;
#X text 27 227 /wii/\$1/button/Minus;
#X text 27 247 /wii/\$1/button/Plus;
#X text 27 267 /wii/\$1/button/Home;
#X text 27 367 /wii/\$1/nunchuck/joy;
#X text 27 437 /wii/\$1/nunchuk/button/C;
#X text 27 457 /wii/\$1/nunchuk/button/Z;
#X text 27 507 /wii/\$1/nunchuk/accel/pry;
#X text 237 367 nun-\$1-joy-x;
#X text 237 386 nun-\$1-joy-y;
#X text 237 437 nun-\$1-button-c;
#X text 237 457 nun-\$1-button-z;
#X text 357 507 (up/down);
#X text 357 527 (left/right);
#X text 357 546 (forward/back);
#X text 357 566 (acceleration);
#X text 497 247 /wii/\$1/ir;
#X text 657 247 wii-\$1-ir-x;
#X text 767 247 (left/right);
#X text 767 266 (up/down);
#X text 657 266 wii-\$1-ir-y;
#X text 27 17 This sub-patch lists the OSC address patterns that osculator
sends to your loopback address \, and the corresponding sends that
their data are mapped to in this abstraction.;
#X text 657 107 wii-\$1-pitch;
#X text 657 127 wii-\$1-roll;
#X text 657 146 wii-\$1-yaw;
#X text 657 166 wii-\$1-accel;
#X text 237 507 nun-\$1-pitch;
#X text 237 527 nun-\$1-roll;
#X text 237 546 nun-\$1-yaw;
#X text 237 566 nun-\$1-accel;
#X restore 283 92 pd address-space;
#X obj 69 103 udpreceive 9000;
#X obj 78 171 print OSC;
#X obj 69 228 routeOSC /1;
#X connect 2 0 3 0;
#X connect 3 0 11 0;
#X connect 9 0 2 0;
#X connect 11 0 4 0;
