#N canvas 1011 73 712 728 10;
#X obj 51 35 cnv 15 350 500 empty empty OPENCV 20 20 0 14 -233017 -66577
0;
#X obj 69 137 gemhead;
#X obj 69 182 pix_video;
#X obj 69 472 rectangle 4 3;
#X obj 69 446 pix_texture;
#X msg 88 160 dialog;
#X obj 69 219 pix_rgba;
#X obj 69 249 pix_resize 320 240;
#X obj 69 335 pix_opencv_haarcascade;
#X floatatom 198 419 5 0 0 0 - - -;
#X floatatom 232 419 5 0 0 0 - - -;
#X floatatom 267 419 5 0 0 0 - - -;
#X obj 198 365 route 0 1 2 3 4;
#X obj 198 390 unpack 0 0 0;
#X floatatom 133 366 5 0 0 0 - - -;
#X text 197 437 X Y Radius;
#X obj 89 291 openpanel;
#X msg 89 312 load \$1;
#X obj 89 272 bng 15 250 50 0 empty empty empty 17 7 0 10 -262144 -1
-1;
#N canvas 0 22 450 300 gemwin 0;
#X obj 132 136 gemwin;
#X obj 67 89 outlet;
#X obj 67 10 inlet;
#X msg 67 70 set destroy;
#X msg 132 112 create \, 1;
#X msg 198 112 destroy;
#X msg 156 71 set create;
#X obj 67 41 route create;
#X connect 2 0 7 0;
#X connect 3 0 1 0;
#X connect 4 0 0 0;
#X connect 5 0 0 0;
#X connect 6 0 1 0;
#X connect 7 0 3 0;
#X connect 7 0 4 0;
#X connect 7 1 6 0;
#X connect 7 1 5 0;
#X restore 69 107 pd gemwin;
#X msg 69 85 create;
#X connect 1 0 2 0;
#X connect 2 0 6 0;
#X connect 4 0 3 0;
#X connect 5 0 2 0;
#X connect 6 0 7 0;
#X connect 7 0 8 0;
#X connect 8 0 4 0;
#X connect 8 1 14 0;
#X connect 8 2 12 0;
#X connect 12 0 13 0;
#X connect 13 0 9 0;
#X connect 13 1 10 0;
#X connect 13 2 11 0;
#X connect 16 0 17 0;
#X connect 17 0 8 0;
#X connect 18 0 16 0;
#X connect 19 0 20 0;
#X connect 20 0 19 0;
