#N canvas 1011 73 712 728 10;
#X obj 51 35 cnv 15 350 500 empty empty OPENCV 20 20 0 14 -233017 -66577
0;
#X obj 69 137 gemhead;
#X obj 69 182 pix_video;
#X obj 69 113 abs-gemwin;
#X msg 69 90 create;
#X msg 126 90 dimen 640 480;
#X obj 69 472 rectangle 4 3;
#X obj 69 446 pix_texture;
#X msg 88 160 dialog;
#X obj 69 219 pix_rgba;
#X obj 69 249 pix_resize 320 240;
#X obj 69 335 pix_opencv_haarcascade;
#X floatatom 198 419 5 0 0 0 - - -;
#X floatatom 232 419 5 0 0 0 - - -;
#X floatatom 267 419 5 0 0 0 - - -;
#X obj 198 365 route 0 1 2 3 4;
#X obj 198 390 unpack 0 0 0;
#X floatatom 133 366 5 0 0 0 - - -;
#X text 197 437 X Y Radius;
#X obj 89 291 openpanel;
#X msg 89 312 load \$1;
#X obj 89 272 bng 15 250 50 0 empty empty empty 17 7 0 10 -262144 -1
-1;
#X connect 1 0 2 0;
#X connect 2 0 9 0;
#X connect 3 0 4 0;
#X connect 4 0 3 0;
#X connect 5 0 3 1;
#X connect 7 0 6 0;
#X connect 8 0 2 0;
#X connect 9 0 10 0;
#X connect 10 0 11 0;
#X connect 11 0 7 0;
#X connect 11 1 17 0;
#X connect 11 2 15 0;
#X connect 15 0 16 0;
#X connect 16 0 12 0;
#X connect 16 1 13 0;
#X connect 16 2 14 0;
#X connect 19 0 20 0;
#X connect 20 0 11 0;
#X connect 21 0 19 0;
