#N canvas 678 42 732 656 10;
#X declare -lib Gem -lib iemmatrix;
#X obj 32 22 cnv 15 250 500 empty empty BLOBTRACKING 20 20 0 14 -233017
-66577 0;
#X obj 50 124 gemhead;
#X obj 50 169 pix_video;
#X obj 50 100 abs-gemwin;
#X msg 50 77 create;
#X msg 107 78 dimen 640 480;
#X obj 50 429 rectangle 4 3;
#X obj 50 404 pix_texture;
#X msg 69 147 dialog;
#X floatatom 62 282 5 0 100 2 - - -;
#X obj 62 299 / 100;
#X msg 62 320 threshold \$1;
#X floatatom 151 282 5 0 100 2 - - -;
#X obj 151 299 / 100;
#X msg 151 320 blobSize \$1;
#N canvas 0 22 450 300 showblobs 0;
#X obj 67 113 route 0 1 2 3 4 5;
#N canvas 1110 165 451 339 showblob 0;
#X obj 76 184 gemhead;
#X obj 76 266 translateXYZ;
#X obj 102 58 pack;
#X obj 102 34 inlet x|y;
#X obj 76 225 color 1 1 1;
#X obj 219 75 loadbang;
#X obj 219 122 random 256;
#X obj 219 143 / 256;
#X obj 219 185 hsv2rgb;
#X msg 219 166 \$1 1 1;
#X obj 219 97 t b b;
#X obj 76 286 sphere 0.2;
#X msg 249 233 0;
#X msg 216 233 0.2;
#X obj 216 254 f;
#X obj 298 47 t b;
#X obj 298 24 inlet reset;
#X obj 139 183 t f b;
#X obj 102 85 unpack;
#X obj 102 108 * 8;
#X obj 102 131 - 4;
#X obj 145 106 * 8;
#X obj 145 129 - 4;
#X connect 0 0 4 0;
#X connect 1 0 11 0;
#X connect 2 0 18 0;
#X connect 3 0 2 0;
#X connect 4 0 1 0;
#X connect 5 0 10 0;
#X connect 6 0 7 0;
#X connect 7 0 9 0;
#X connect 8 0 4 1;
#X connect 9 0 8 0;
#X connect 10 0 6 0;
#X connect 10 1 12 0;
#X connect 12 0 14 0;
#X connect 13 0 14 0;
#X connect 14 0 11 1;
#X connect 15 0 12 0;
#X connect 16 0 15 0;
#X connect 17 0 1 2;
#X connect 17 1 13 0;
#X connect 18 0 19 0;
#X connect 18 1 21 0;
#X connect 19 0 20 0;
#X connect 20 0 1 1;
#X connect 21 0 22 0;
#X connect 22 0 17 0;
#X restore 67 136 pd showblob;
#N canvas 0 22 451 339 showblob 0;
#X obj 76 184 gemhead;
#X obj 76 266 translateXYZ;
#X obj 102 58 pack;
#X obj 102 34 inlet x|y;
#X obj 76 225 color 1 1 1;
#X obj 219 75 loadbang;
#X obj 219 122 random 256;
#X obj 219 143 / 256;
#X obj 219 185 hsv2rgb;
#X msg 219 166 \$1 1 1;
#X obj 219 97 t b b;
#X obj 76 286 sphere 0.2;
#X msg 249 233 0;
#X msg 216 233 0.2;
#X obj 216 254 f;
#X obj 298 47 t b;
#X obj 298 24 inlet reset;
#X obj 139 183 t f b;
#X obj 102 85 unpack;
#X obj 102 108 * 8;
#X obj 102 131 - 4;
#X obj 145 106 * 8;
#X obj 145 129 - 4;
#X connect 0 0 4 0;
#X connect 1 0 11 0;
#X connect 2 0 18 0;
#X connect 3 0 2 0;
#X connect 4 0 1 0;
#X connect 5 0 10 0;
#X connect 6 0 7 0;
#X connect 7 0 9 0;
#X connect 8 0 4 1;
#X connect 9 0 8 0;
#X connect 10 0 6 0;
#X connect 10 1 12 0;
#X connect 12 0 14 0;
#X connect 13 0 14 0;
#X connect 14 0 11 1;
#X connect 15 0 12 0;
#X connect 16 0 15 0;
#X connect 17 0 1 2;
#X connect 17 1 13 0;
#X connect 18 0 19 0;
#X connect 18 1 21 0;
#X connect 19 0 20 0;
#X connect 20 0 1 1;
#X connect 21 0 22 0;
#X connect 22 0 17 0;
#X restore 86 155 pd showblob;
#N canvas 0 22 451 339 showblob 0;
#X obj 76 184 gemhead;
#X obj 76 266 translateXYZ;
#X obj 102 58 pack;
#X obj 102 34 inlet x|y;
#X obj 76 225 color 1 1 1;
#X obj 219 75 loadbang;
#X obj 219 122 random 256;
#X obj 219 143 / 256;
#X obj 219 185 hsv2rgb;
#X msg 219 166 \$1 1 1;
#X obj 219 97 t b b;
#X obj 76 286 sphere 0.2;
#X msg 249 233 0;
#X msg 216 233 0.2;
#X obj 216 254 f;
#X obj 298 47 t b;
#X obj 298 24 inlet reset;
#X obj 139 183 t f b;
#X obj 102 92 unpack;
#X obj 102 115 * 8;
#X obj 102 138 - 4;
#X obj 145 113 * 8;
#X obj 145 136 - 4;
#X connect 0 0 4 0;
#X connect 1 0 11 0;
#X connect 2 0 18 0;
#X connect 3 0 2 0;
#X connect 4 0 1 0;
#X connect 5 0 10 0;
#X connect 6 0 7 0;
#X connect 7 0 9 0;
#X connect 8 0 4 1;
#X connect 9 0 8 0;
#X connect 10 0 6 0;
#X connect 10 1 12 0;
#X connect 12 0 14 0;
#X connect 13 0 14 0;
#X connect 14 0 11 1;
#X connect 15 0 12 0;
#X connect 16 0 15 0;
#X connect 17 0 1 2;
#X connect 17 1 13 0;
#X connect 18 0 19 0;
#X connect 18 1 21 0;
#X connect 19 0 20 0;
#X connect 20 0 1 1;
#X connect 21 0 22 0;
#X connect 22 0 17 0;
#X restore 105 174 pd showblob;
#N canvas 0 22 451 339 showblob 0;
#X obj 76 184 gemhead;
#X obj 76 266 translateXYZ;
#X obj 102 58 pack;
#X obj 102 34 inlet x|y;
#X obj 76 225 color 1 1 1;
#X obj 219 75 loadbang;
#X obj 219 122 random 256;
#X obj 219 143 / 256;
#X obj 219 185 hsv2rgb;
#X msg 219 166 \$1 1 1;
#X obj 219 97 t b b;
#X obj 76 286 sphere 0.2;
#X msg 249 233 0;
#X msg 216 233 0.2;
#X obj 216 254 f;
#X obj 298 47 t b;
#X obj 298 24 inlet reset;
#X obj 139 183 t f b;
#X obj 102 85 unpack;
#X obj 102 108 * 8;
#X obj 102 131 - 4;
#X obj 145 106 * 8;
#X obj 145 129 - 4;
#X connect 0 0 4 0;
#X connect 1 0 11 0;
#X connect 2 0 18 0;
#X connect 3 0 2 0;
#X connect 4 0 1 0;
#X connect 5 0 10 0;
#X connect 6 0 7 0;
#X connect 7 0 9 0;
#X connect 8 0 4 1;
#X connect 9 0 8 0;
#X connect 10 0 6 0;
#X connect 10 1 12 0;
#X connect 12 0 14 0;
#X connect 13 0 14 0;
#X connect 14 0 11 1;
#X connect 15 0 12 0;
#X connect 16 0 15 0;
#X connect 17 0 1 2;
#X connect 17 1 13 0;
#X connect 18 0 19 0;
#X connect 18 1 21 0;
#X connect 19 0 20 0;
#X connect 20 0 1 1;
#X connect 21 0 22 0;
#X connect 22 0 17 0;
#X restore 124 193 pd showblob;
#N canvas 0 22 451 339 showblob 0;
#X obj 76 184 gemhead;
#X obj 76 266 translateXYZ;
#X obj 102 60 pack;
#X obj 102 34 inlet x|y;
#X obj 76 225 color 1 1 1;
#X obj 219 75 loadbang;
#X obj 219 122 random 256;
#X obj 219 143 / 256;
#X obj 219 185 hsv2rgb;
#X msg 219 166 \$1 1 1;
#X obj 219 97 t b b;
#X obj 76 286 sphere 0.2;
#X msg 249 233 0;
#X msg 216 233 0.2;
#X obj 216 254 f;
#X obj 298 47 t b;
#X obj 298 24 inlet reset;
#X obj 139 183 t f b;
#X obj 102 85 unpack;
#X obj 102 108 * 8;
#X obj 102 131 - 4;
#X obj 145 106 * 8;
#X obj 145 129 - 4;
#X connect 0 0 4 0;
#X connect 1 0 11 0;
#X connect 2 0 18 0;
#X connect 3 0 2 0;
#X connect 4 0 1 0;
#X connect 5 0 10 0;
#X connect 6 0 7 0;
#X connect 7 0 9 0;
#X connect 8 0 4 1;
#X connect 9 0 8 0;
#X connect 10 0 6 0;
#X connect 10 1 12 0;
#X connect 12 0 14 0;
#X connect 13 0 14 0;
#X connect 14 0 11 1;
#X connect 15 0 12 0;
#X connect 16 0 15 0;
#X connect 17 0 1 2;
#X connect 17 1 13 0;
#X connect 18 0 19 0;
#X connect 18 1 21 0;
#X connect 19 0 20 0;
#X connect 20 0 1 1;
#X connect 21 0 22 0;
#X connect 22 0 17 0;
#X restore 143 212 pd showblob;
#N canvas 0 22 451 339 showblob 0;
#X obj 76 184 gemhead;
#X obj 76 266 translateXYZ;
#X obj 102 58 pack;
#X obj 102 34 inlet x|y;
#X obj 76 225 color 1 1 1;
#X obj 219 75 loadbang;
#X obj 219 122 random 256;
#X obj 219 143 / 256;
#X obj 219 185 hsv2rgb;
#X msg 219 166 \$1 1 1;
#X obj 219 97 t b b;
#X obj 76 286 sphere 0.2;
#X msg 249 233 0;
#X msg 216 233 0.2;
#X obj 216 254 f;
#X obj 298 47 t b;
#X obj 298 24 inlet reset;
#X obj 139 183 t f b;
#X obj 102 85 unpack;
#X obj 102 108 * 8;
#X obj 102 131 - 4;
#X obj 145 106 * 8;
#X obj 145 129 - 4;
#X connect 0 0 4 0;
#X connect 1 0 11 0;
#X connect 2 0 18 0;
#X connect 3 0 2 0;
#X connect 4 0 1 0;
#X connect 5 0 10 0;
#X connect 6 0 7 0;
#X connect 7 0 9 0;
#X connect 8 0 4 1;
#X connect 9 0 8 0;
#X connect 10 0 6 0;
#X connect 10 1 12 0;
#X connect 12 0 14 0;
#X connect 13 0 14 0;
#X connect 14 0 11 1;
#X connect 15 0 12 0;
#X connect 16 0 15 0;
#X connect 17 0 1 2;
#X connect 17 1 13 0;
#X connect 18 0 19 0;
#X connect 18 1 21 0;
#X connect 19 0 20 0;
#X connect 20 0 1 1;
#X connect 21 0 22 0;
#X connect 22 0 17 0;
#X restore 162 231 pd showblob;
#X obj 67 86 inlet blobinformation;
#X connect 0 0 1 0;
#X connect 0 1 2 0;
#X connect 0 2 3 0;
#X connect 0 3 4 0;
#X connect 0 4 5 0;
#X connect 0 5 6 0;
#X connect 7 0 0 0;
#X restore 99 381 pd showblobs;
#X msg 60 216 reset;
#X obj 50 245 pix_background;
#X msg 131 221 \$1 \$1 \$1;
#X msg 131 186 0.5;
#X floatatom 131 205 5 0 0 0 - - -;
#X obj 50 354 pix_blobtracker 2;
#X connect 1 0 2 0;
#X connect 2 0 17 0;
#X connect 3 0 4 0;
#X connect 4 0 3 0;
#X connect 5 0 3 1;
#X connect 7 0 6 0;
#X connect 8 0 2 0;
#X connect 9 0 10 0;
#X connect 10 0 11 0;
#X connect 11 0 21 0;
#X connect 12 0 13 0;
#X connect 13 0 14 0;
#X connect 14 0 21 0;
#X connect 16 0 17 0;
#X connect 17 0 21 0;
#X connect 18 0 17 1;
#X connect 19 0 20 0;
#X connect 20 0 18 0;
#X connect 21 0 7 0;
#X connect 21 1 15 0;
