#N canvas 786 26 596 930 10;
#X obj 27 19 cnv 15 300 200 empty empty ARITHMETIC 20 20 0 14 -233017
-66577 0;
#X obj 27 240 cnv 15 300 200 empty empty MIN_MAX_CLIP 20 20 0 14 -233017
-66577 0;
#X obj 27 461 cnv 15 300 200 empty empty LOGIC 20 20 0 14 -233017 -66577
0;
#X obj 28 680 cnv 15 300 200 empty empty HIGHER 20 20 0 14 -233017
-66577 0;
#X obj 80 139 + 1;
#X floatatom 52 168 5 0 0 0 - - -;
#X msg 52 108 bang;
#X obj 52 139 i;
#X floatatom 154 101 5 0 0 0 - - -;
#X floatatom 169 121 5 0 0 0 - - -;
#X floatatom 154 168 5 0 0 0 - - -;
#X msg 230 108 3 4;
#X floatatom 230 167 5 0 0 0 - - -;
#X floatatom 47 295 5 0 0 0 - - -;
#X floatatom 47 364 5 0 0 0 - - -;
#X obj 47 337 min;
#X floatatom 62 315 5 0 0 0 - - -;
#X floatatom 150 310 5 0 0 0 - - -;
#X floatatom 150 365 5 0 0 0 - - -;
#X obj 150 337 max 5;
#X obj 154 141 -;
#X obj 230 140 *;
#X obj 52 552 >;
#X floatatom 52 589 5 0 0 0 - - -;
#X msg 52 524 2 1;
#X floatatom 102 513 5 0 0 0 - - -;
#X floatatom 117 532 5 0 0 0 - - -;
#X floatatom 102 591 5 0 0 0 - - -;
#X obj 102 554 <;
#X floatatom 49 829 5 0 0 0 - - -;
#X floatatom 93 829 5 0 0 0 - - -;
#X obj 93 799 exp;
#X floatatom 134 829 5 0 0 0 - - -;
#X floatatom 178 829 5 0 0 0 - - -;
#X obj 134 799 log;
#X obj 178 798 abs;
#X floatatom 224 829 5 0 0 0 - - -;
#X obj 224 798 sqrt;
#X floatatom 134 731 5 0 0 0 - - -;
#X obj 49 799 pow 2;
#X floatatom 233 311 5 0 0 0 - - -;
#X floatatom 233 366 5 0 0 0 - - -;
#X obj 233 338 clip -5 5;
#X connect 4 0 7 1;
#X connect 6 0 7 0;
#X connect 7 0 4 0;
#X connect 7 0 5 0;
#X connect 8 0 20 0;
#X connect 9 0 20 1;
#X connect 11 0 21 0;
#X connect 13 0 15 0;
#X connect 15 0 14 0;
#X connect 16 0 15 1;
#X connect 17 0 19 0;
#X connect 19 0 18 0;
#X connect 20 0 10 0;
#X connect 21 0 12 0;
#X connect 22 0 23 0;
#X connect 24 0 22 0;
#X connect 25 0 28 0;
#X connect 26 0 28 1;
#X connect 28 0 27 0;
#X connect 31 0 30 0;
#X connect 34 0 32 0;
#X connect 35 0 33 0;
#X connect 37 0 36 0;
#X connect 38 0 31 0;
#X connect 38 0 34 0;
#X connect 38 0 35 0;
#X connect 38 0 37 0;
#X connect 38 0 39 0;
#X connect 39 0 29 0;
#X connect 40 0 42 0;
#X connect 42 0 41 0;
